<svg xmlns="http://www.w3.org/2000/svg" width="58.097" height="58.097" viewBox="0 0 58.097 58.097"><defs><style>.a{fill:#bc264f;}</style></defs><g transform="translate(0)"><path class="a" d="M57.128,1.937a.968.968,0,1,0,0-1.937H32.1a3.863,3.863,0,0,0-2.6,1L1.6,26.208A4.848,4.848,0,0,0,0,29.8v3.12a.968.968,0,1,0,1.937,0V29.8a2.912,2.912,0,0,1,.958-2.156l3.884-3.508v22.34H.968a.968.968,0,1,0,0,1.937h.968V56.16A1.942,1.942,0,0,0,3.873,58.1H56.16A1.942,1.942,0,0,0,58.1,56.16V19.366a1.942,1.942,0,0,0-1.937-1.937H50.35V1.936Zm-39.7,34.858h-5.81a.968.968,0,0,0,0,1.937h.968v6.778a.972.972,0,0,1-.968.968h-2.9V22.388l8.715-7.871ZM28.08,27.112H22.27a.968.968,0,0,0,0,1.937h.968v6.778a.971.971,0,0,1-.968.968h-2.9V12.768L28.08,4.9ZM40.667,1.937h7.747V17.429H40.667Zm-.581,33.4A12.965,12.965,0,0,1,42.9,28.826a13.009,13.009,0,0,1,1.53,6.923,7.156,7.156,0,0,1-.155,1.017,12.971,12.971,0,0,0-1.316,3.479.883.883,0,0,0-.027.107,1.267,1.267,0,0,0-.042.189,14.029,14.029,0,0,0-.31,2.062h-.929a14.984,14.984,0,0,0-1.588-5.654,8.916,8.916,0,0,1,.02-1.617ZM30.017,3.148l.789-.712a1.93,1.93,0,0,1,1.3-.5h6.628V17.429h-5.81a.968.968,0,0,0,0,1.937h.968v6.778a.972.972,0,0,1-.968.968h-2.9ZM32.04,32.834a13.548,13.548,0,0,1,2.585,1.191,10.1,10.1,0,0,1,2.74,2.3,11.833,11.833,0,0,1,2.3,5.935,11.822,11.822,0,0,1-5.316-3.5A11.959,11.959,0,0,1,32.04,32.834ZM46.477,54.223a1.942,1.942,0,0,1-1.937,1.937H38.615a1.948,1.948,0,0,1-1.82-1.937v-5.81h9.683Zm1.937-7.746H34.858V44.541H48.414ZM52.2,32.834a11.771,11.771,0,0,1-2.314,5.935,11.872,11.872,0,0,1-5.326,3.5,13.213,13.213,0,0,1,.252-1.453c.1-.416.223-.862.378-1.327l.891-2,.794-1.152a11.954,11.954,0,0,1,5.326-3.5Zm0,0" transform="translate(0 0)"/><path class="a" d="M342.3,471.268h3.873a.968.968,0,1,0,0-1.937H342.3a.968.968,0,1,0,0,1.937Zm0,0" transform="translate(-302.601 -416.077)"/></g></svg>