<svg xmlns="http://www.w3.org/2000/svg" width="69.67" height="68.67" viewBox="0 0 69.67 68.67"><defs><style>.a{fill:#bc264f;}</style></defs><g transform="translate(0 -2.828)"><g transform="translate(27.232 49.571)"><path class="a" d="M154,267.172V289.1h4.421v-7.008a1.505,1.505,0,0,1,1.453-1.48h9.966a1.537,1.537,0,0,1,1.489,1.48V289.1h4.421V267.172Z" transform="translate(-154 -267.172)"/></g><g transform="translate(34.481 65.84)"><rect class="a" width="7.25" height="5.659"/></g><g transform="translate(0 31.358)"><path class="a" d="M22.011,164.17H2.361A2.324,2.324,0,0,0,0,166.457c0,.006,0,.012,0,.019V204.31H5.835V192.031a1.345,1.345,0,0,1,1.409-1.337h9.883a1.372,1.372,0,0,1,1.44,1.337V204.31H24.4V166.475A2.351,2.351,0,0,0,22.011,164.17Zm-2.206,19.1H4.6v-2.829H19.8Zm0-9.018H4.6V171.42H19.8Z" transform="translate(0 -164.17)"/></g><g transform="translate(5.305 21.278)"><path class="a" d="M41.464,107.169c-.037,0-.075,0-.112,0H32.409A2.334,2.334,0,0,0,30,109.434v4.984H43.616v-4.984A2.209,2.209,0,0,0,41.464,107.169Z" transform="translate(-30 -107.168)"/></g><g transform="translate(8.665 60.712)"><rect class="a" width="7.073" height="10.787"/></g><g transform="translate(7.999 2.828)"><g transform="translate(0 0)"><circle class="a" cx="4.186" cy="4.186" r="4.186"/></g></g><g transform="translate(51.811 61.419)"><rect class="a" width="17.86" height="10.079"/></g><g transform="translate(51.811 4.127)"><g transform="translate(0 0)"><path class="a" d="M308.5,10.172H295.438A2.435,2.435,0,0,0,293,12.529V15.3h17.86V12.529A2.368,2.368,0,0,0,308.5,10.172Z" transform="translate(-293 -10.172)"/></g></g><g transform="translate(51.811 53.285)"><rect class="a" width="17.86" height="5.305"/></g><g transform="translate(51.811 12.084)"><rect class="a" width="17.86" height="5.305"/></g><g transform="translate(51.811 20.218)"><rect class="a" width="17.86" height="5.482"/></g><g transform="translate(51.811 28.529)"><rect class="a" width="17.86" height="5.305"/></g><g transform="translate(51.811 44.974)"><rect class="a" width="17.86" height="5.482"/></g><g transform="translate(51.811 36.663)"><rect class="a" width="17.86" height="5.482"/></g><g transform="translate(10.787 12.614)"><rect class="a" width="2.829" height="7.25"/></g></g></svg>