<svg xmlns="http://www.w3.org/2000/svg" width="68.328" height="68.328" viewBox="0 0 68.328 68.328"><defs><style>.a{fill:#bc264f;}</style></defs><path class="a" d="M51.379,292.537H57.3a7.972,7.972,0,0,0,7.963-7.963v-2.545H58.966a7.977,7.977,0,0,0-7.58,5.525l.01-6.992a20.075,20.075,0,0,1-4.013,0l-.024,17.389H18.177V286.265H24.2a7.972,7.972,0,0,0,7.963-7.963v-2.545H25.869a7.977,7.977,0,0,0-7.693,5.907V269.616a20.067,20.067,0,0,1-4.013.005v28.329H0v4.013H68.329v-4.013H51.371Z" transform="translate(0 -233.635)"/><path class="a" d="M107.369,107.048a2.384,2.384,0,1,0-1.686.7A2.369,2.369,0,0,0,107.369,107.048Z" transform="translate(-89.513 -89.234)"/><path class="a" d="M21.524,29.119a6.123,6.123,0,0,0,1.748.253,6.1,6.1,0,0,0,6.1-6.1,6.131,6.131,0,0,0-.252-1.748,6.1,6.1,0,0,0,0-10.732A6.106,6.106,0,0,0,21.524,3.2a6.1,6.1,0,0,0-10.73,0,6.122,6.122,0,0,0-1.748-.253A6.1,6.1,0,0,0,3.2,10.792a6.1,6.1,0,0,0,0,10.732,6.134,6.134,0,0,0-.252,1.748,6.1,6.1,0,0,0,6.1,6.1,6.123,6.123,0,0,0,1.748-.253,6.1,6.1,0,0,0,10.73,0ZM11.647,20.65a6.4,6.4,0,1,1,4.524,1.874A6.355,6.355,0,0,1,11.647,20.65Z"/><path class="a" d="M252.2,92.792a6.1,6.1,0,0,0,0,10.732,6.135,6.135,0,0,0-.252,1.748,6.1,6.1,0,0,0,6.1,6.1,6.123,6.123,0,0,0,1.748-.253,6.1,6.1,0,0,0,10.73,0,6.123,6.123,0,0,0,1.748.253,6.1,6.1,0,0,0,6.1-6.1,6.131,6.131,0,0,0-.252-1.748,6.1,6.1,0,0,0,0-10.732,6.106,6.106,0,0,0-7.592-7.593,6.1,6.1,0,0,0-10.73,0,6.122,6.122,0,0,0-1.748-.253,6.1,6.1,0,0,0-5.843,7.846Zm8.444.811a6.4,6.4,0,1,1-1.874,4.524A6.355,6.355,0,0,1,260.647,93.6Z" transform="translate(-215.77 -71.057)"/><path class="a" d="M354.684,189.745a2.384,2.384,0,1,0-1.686-.7A2.369,2.369,0,0,0,354.684,189.745Z" transform="translate(-305.283 -160.29)"/></svg>