<svg xmlns="http://www.w3.org/2000/svg" width="536" height="525" viewBox="0 0 536 525"><defs><style>.a{fill:#47aad1;}.b{fill:#e2e2e2;}.aa,.c,.t,.y,.z{fill:#fff;}.d{fill:#0a3470;}.e{fill:#eda18a;}.f{fill:#fdb498;}.g{fill:#0d6499;}.ab,.h{fill:none;}.i{fill:#c2ba17;}.j{fill:#e89a82;}.k{fill:#74b4d2;}.l{fill:#91bfd1;}.m{fill:#75b2cc;}.n{fill:#60a8c9;}.o{fill:#917f17;}.p{fill:#776c0a;}.q{fill:#aa9f15;}.r{fill:#783f26;}.s{fill:#8c5234;}.t{font-size:47px;}.aa,.t,.y,.z{font-family:SegoeUI, Segoe UI;}.u{letter-spacing:-0.02em;}.v{letter-spacing:-0.07em;}.w{letter-spacing:-0.01em;}.x{letter-spacing:0.03em;}.y{font-size:59px;}.z{font-size:44px;}.aa{font-size:16px;}.ab{stroke:#fff;stroke-miterlimit:10;stroke-width:2px;}</style></defs><g transform="translate(61.49 61.025)"><g transform="translate(-61.782 -60.915)"><ellipse class="a" cx="268" cy="262.5" rx="268" ry="262.5" transform="translate(0.292 -0.11)"/><path class="b" d="M295.453,309.719H30.3a8.446,8.446,0,0,1-8.585-6.729c-1.256,5.237,1.61,11.622,8.585,11.622H295.453c6.986,0,9.841-6.385,8.585-11.622a8.435,8.435,0,0,1-8.585,6.729Z" transform="translate(67.871 87.542)"/><path class="c" d="M30.285,310.178H295.433a8.435,8.435,0,0,0,8.585-6.729,8.424,8.424,0,0,0-8.585-6.729H30.285a8.435,8.435,0,0,0-8.585,6.729,8.446,8.446,0,0,0,8.585,6.729Z" transform="translate(67.891 87.082)"/><path class="d" d="M213.275,132.508c26.142-4.894,8.972-61.965-1.631-72.6-12.245-11.429-35.9-5.72-51.394-8.982-16.312-2.447-35.9-9.787-43.238,13.876-4.078,13.865,4.894,33.44,6.525,47.305,1.631,15.507,0,26.11,18.77,25.295Z" transform="translate(74.788 68.877)"/><path class="e" d="M158.39,159.43v33.451h23.889V159.43Z" transform="translate(77.892 77.037)"/><path class="f" d="M131.328,75.228c-3.348,33.451-8.027,91,36.134,95.018,38.806,4.014,49.516-30.113,48.175-61.568,0-8.693-4.014-28.106-6.686-36.8Z" transform="translate(75.764 70.631)"/><path class="d" d="M167.445,190.467c13.372,1.073,23.116-3.456,26.829-16.1a41.144,41.144,0,0,0-11.247-.086c-1.6,15.132-22.3,9.959-25.488.4a51.641,51.641,0,0,0-9.819.773C148.976,185.713,157.947,189.909,167.445,190.467Z" transform="translate(77.111 78.099)"/><path class="g" d="M208.178,92.954c25.627-8.907,29.072,40.426-.558,36.488C207.942,121.371,207.738,103.814,208.178,92.954Z" transform="translate(81.494 72.094)"/><path class="g" d="M124.407,103.232c3.906-24,25.252-38.4,48.561-39.707,23.535-1.363,45.674,12.234,47.939,36.981.429,4.679,7.77,4.722,7.34,0-5.613-61.321-101.661-56.073-110.923.826-.751,4.636,6.321,6.621,7.083,1.953Z" transform="translate(74.883 69.51)"/><path class="g" d="M121.823,122.286c-.215,9.82-4.937,24.125,5.774,29.941,9.39,5.087,22.2,2.908,32.4,2.833,3.488,0,3.5-5.441,0-5.42-8.961.075-18.137,1.127-26.937-1.073-11.161-2.833-6.01-17.847-5.827-26.25.075-3.488-5.366-3.477-5.366,0Z" transform="translate(75.127 74.131)"/><path class="g" d="M131.395,92.954c-25.627-8.907-29.072,40.426.558,36.488C131.674,121.371,131.867,103.814,131.395,92.954Z" transform="translate(74.42 72.094)"/><path class="h" d="M166.564,189.413a33.923,33.923,0,0,0,12.878-1.073H159.76a31.508,31.508,0,0,0,6.8,1.073Z" transform="translate(77.992 79.153)"/><path class="c" d="M191.322,174.35a26.239,26.239,0,0,1-2.822,6.439h20.927a50.75,50.75,0,0,0-18.1-6.439Z" transform="translate(80.095 78.129)"/><path class="c" d="M94.22,235.811H256.033q-1.406-5.731-3.22-11.021H98.2Q95.98,230.263,94.22,235.811Z" transform="translate(73.197 81.82)"/><path class="c" d="M148.793,175.36a51.05,51.05,0,0,0-15.3,5.366h16.87A16.226,16.226,0,0,1,148.793,175.36Z" transform="translate(76.07 78.203)"/><path class="c" d="M86.18,290.541H266.151l-1.685-11.021H87.275Z" transform="translate(72.609 85.824)"/><path class="c" d="M101.51,217.561h147.4a102.837,102.837,0,0,0-5.656-11.011H107.584A120.194,120.194,0,0,0,101.51,217.561Z" transform="translate(73.73 80.485)"/><path class="c" d="M87.99,272.291H263.013l-1.685-11.011H89.074Z" transform="translate(72.741 84.49)"/><path class="c" d="M170.007,189.413a31.508,31.508,0,0,1-6.8-1.073h-40.3A81.881,81.881,0,0,0,112.7,199.351H236.683a80.157,80.157,0,0,0-10.013-11.011H182.832A33.924,33.924,0,0,1,170.007,189.413Z" transform="translate(74.549 79.153)"/><path class="c" d="M89.908,252.806l-.118,1.245H259.877l-.977-6.375c-.215-1.567-.461-3.112-.73-4.636H92.065C91.217,246.345,90.5,249.608,89.908,252.806Z" transform="translate(72.873 83.155)"/><path class="i" d="M189.265,180.33a19.65,19.65,0,0,1-11.215,8.585h43.839a65.938,65.938,0,0,0-11.676-8.585Z" transform="translate(79.331 78.567)"/><path class="i" d="M151.186,180.33h-16.87a62.094,62.094,0,0,0-12.105,8.585h40.3C157.592,187.488,153.407,184.784,151.186,180.33Z" transform="translate(75.245 78.567)"/><path class="i" d="M107.17,207.135H242.84a90.891,90.891,0,0,0-5.752-8.585H113.1Q109.95,202.671,107.17,207.135Z" transform="translate(74.144 79.9)"/><path class="i" d="M97.93,225.375H252.542c-1.073-2.962-2.146-5.806-3.38-8.585H101.772C100.4,219.623,99.078,222.489,97.93,225.375Z" transform="translate(73.468 81.234)"/><path class="i" d="M91.91,243.585H258.015q-.773-4.389-1.792-8.585H94.389C93.477,237.93,92.64,240.784,91.91,243.585Z" transform="translate(73.028 82.567)"/><path class="i" d="M89,261.864H261.255l-1.32-8.564H89.848Z" transform="translate(72.815 83.906)"/><path class="i" d="M87.2,280.1H264.391l-1.32-8.564H88.048Z" transform="translate(72.683 85.24)"/><path class="i" d="M85.4,298.354H267.528l-1.32-8.564H86.237Z" transform="translate(72.552 86.576)"/><path class="d" d="M145.124,116.44c2.5-7.8,12.223-7.426,16.033-.869a.923.923,0,0,0,1.588-.923c-4.647-8.006-16.419-7.952-19.392,1.3C143,117.084,144.77,117.556,145.124,116.44Z" transform="translate(76.789 73.334)"/><path class="d" d="M181.974,115.68c2.5-7.8,12.223-7.426,16.033-.869a.923.923,0,0,0,1.588-.923c-4.658-8.006-16.43-7.952-19.392,1.3C179.839,116.324,181.609,116.8,181.974,115.68Z" transform="translate(79.485 73.278)"/><path class="j" d="M171.031,151.09c9.659-.376,19.843-8.135,22.161-17.664.558-2.3-2.983-3.273-3.531-.977-1.932,7.909-10.539,14.66-18.63,14.971-2.361.1-2.372,3.767,0,3.67Z" transform="translate(78.687 74.967)"/><path class="d" d="M126.82,76.772c17.171,18.759,67.706,22.021,90.554,22.021,0,0,8.156-33.44-37.561-35.887S126.82,76.772,126.82,76.772Z" transform="translate(75.582 69.957)"/><path class="j" d="M173.579,114.253l3.037,17.5a5.806,5.806,0,1,1-11.44,1.985,5.871,5.871,0,0,1,0-1.985l3.037-17.5a2.726,2.726,0,0,1,5.366,0Z" transform="translate(78.383 73.568)"/><path class="k" d="M241.177,193.26H235.06c6.579,0,11.912,4.346,11.912,9.659v84.5c0,5.366-5.366,9.659-11.912,9.659h6.117c6.579,0,11.912-4.293,11.912-9.659V202.961C253.089,197.606,247.756,193.26,241.177,193.26Z" transform="translate(83.502 79.513)"/><path class="k" d="M89.194,287.417V202.959c0-5.366,5.366-9.659,11.912-9.659H96.212c-6.579,0-11.912,4.346-11.912,9.659v84.458c0,5.366,5.366,9.659,11.912,9.659h4.937C94.527,297.076,89.194,292.783,89.194,287.417Z" transform="translate(72.471 79.516)"/><path class="l" d="M257.667,287.417V202.959c0-5.366-5.366-9.659-11.912-9.659H100.812c-6.579,0-11.912,4.346-11.912,9.659v84.458c0,5.366,5.366,9.659,11.912,9.659H245.8C252.333,297.076,257.667,292.783,257.667,287.417Z" transform="translate(72.808 79.516)"/><path class="m" d="M148.812,294.647l-9.562-.343,12.878-50.815a12.223,12.223,0,0,1,13.951-10.249l7.255,1.073a12.234,12.234,0,0,1,10.249,13.951l-.118,49.484v.247Z" transform="translate(76.492 82.428)"/><path class="n" d="M192.32,293.951A12.234,12.234,0,0,1,180.086,306.2H158.064a12.234,12.234,0,0,1-12.234-12.245l7.34-48.937A12.234,12.234,0,0,1,165.4,232.77h7.34a12.234,12.234,0,0,1,12.234,12.245Z" transform="translate(76.973 82.404)"/><path class="o" d="M57.315,248.469l-11.8-2.146a36.778,36.778,0,0,0,.461,4.357l10.517,1.91,14.617-6.825c.354-1.374.655-2.769.9-4.175l-14.681,6.879Z" transform="translate(69.633 83.049)"/><path class="o" d="M56.765,254.509,46.43,252.631a28.75,28.75,0,0,0,1.545,4.55l7.974,1.449,12.417-5.8a39.709,39.709,0,0,0,1.824-4.615L56.765,254.5Z" transform="translate(69.7 83.534)"/><path class="o" d="M58.252,236.264l-11.3-2.05a40.315,40.315,0,0,0-.9,4.11l11.4,2.071,15.379-7.2V229.46l-14.563,6.8Z" transform="translate(69.672 82.161)"/><path class="o" d="M57.839,242.369,45.8,240.223a39.226,39.226,0,0,0-.268,4.228l11.494,2.082,15.411-7.265c.172-1.32.29-2.629.365-3.928l-15.024,7.008Z" transform="translate(69.634 82.592)"/><path class="o" d="M59.341,202.638c-2.661-3.048-5.527-6.074-8.381-9.358a65.344,65.344,0,0,1,1.073,9.659l4.754.869Z" transform="translate(70.032 79.514)"/><path class="o" d="M63.665,207.3q-1.352-1.814-2.833-3.574l-3.756,1.749h0l-5.012-.912c0,1.288,0,2.576-.064,3.853l6.664,1.213Z" transform="translate(70.108 80.279)"/><path class="o" d="M56.075,260.5l-6.965-1.256a21.656,21.656,0,0,0,4.421,5.291c1.749-.569,4.98-.966,6.536-2.146A22.934,22.934,0,0,0,66.3,255.68l-10.217,4.776Z" transform="translate(69.896 84.08)"/><path class="o" d="M59.4,217.812,51.21,216.32c-.215,1.384-.461,2.758-.74,4.142l8.081,1.47,11.032-5.151a30.437,30.437,0,0,0-1.4-3.1L59.367,217.8Z" transform="translate(69.996 81.007)"/><path class="o" d="M59.007,223.987l-8.94-1.62c-.3,1.363-.633,2.726-.987,4.1l9.1,1.653,13.254-6.2c-.268-1.138-.59-2.243-.944-3.316l-11.5,5.366Z" transform="translate(69.894 81.367)"/><path class="o" d="M59.037,211.673h0l-7.147-1.3c-.107,1.331-.258,2.672-.429,4l7.512,1.363,8.049-3.756c-.622-1.073-1.288-2.146-1.975-3.144Z" transform="translate(70.068 80.653)"/><path class="o" d="M58.64,230.139l-10-1.835c-.365,1.341-.751,2.7-1.148,4.067l10.335,1.878,14.692-6.868c-.107-1.148-.247-2.264-.429-3.316v-.215L58.64,230.128Z" transform="translate(69.778 81.751)"/><path class="p" d="M47.87,256.865a25.755,25.755,0,0,0,1.331,2.608l6.965,1.266h0l10.217-4.776a34.831,34.831,0,0,0,1.867-3.423l-12.417,5.8Z" transform="translate(69.805 83.85)"/><path class="p" d="M46,250.384c.14.826.311,1.642.5,2.447l10.335,1.878h0l13.425-6.278c.322-.966.612-1.953.869-2.951l-14.617,6.825Z" transform="translate(69.669 83.334)"/><path class="p" d="M45.5,244.149v2.35l11.8,2.146h0l14.7-6.868c.161-.912.29-1.835.408-2.747l-15.443,7.212Z" transform="translate(69.632 82.862)"/><path class="p" d="M46.072,238.072c-.129.751-.236,1.524-.322,2.3l12.041,2.146h0l15.024-7.008c0-.88.086-1.739.1-2.6l-15.411,7.2Z" transform="translate(69.65 82.414)"/><path class="p" d="M47.534,232.15c-.1.322-.182.644-.29.977s-.247.837-.354,1.256l11.3,2.05h0l14.574-6.8c0-.837-.107-1.663-.182-2.468L57.89,234.028Z" transform="translate(69.734 81.993)"/><path class="p" d="M49.14,226.24c-.182.74-.376,1.492-.58,2.243l10,1.814h0l13.4-6.257c-.14-.794-.3-1.578-.472-2.34L58.24,227.9Z" transform="translate(69.856 81.594)"/><path class="p" d="M50.5,220.247l-.5,2.264,8.918,1.62h0l11.5-5.366c-.236-.74-.5-1.47-.794-2.146l-11.043,5.1Z" transform="translate(69.961 81.222)"/><path class="p" d="M51.482,214.162q-.15,1.138-.322,2.286l8.188,1.492h0l8.811-4.121c-.354-.7-.719-1.374-1.073-2.039l-8.049,3.756Z" transform="translate(70.046 80.868)"/><path class="p" d="M59.007,211.8l6.042-2.822c-.451-.644-.9-1.288-1.374-1.921l-5,2.339-6.664-1.213c0,.773-.086,1.556-.15,2.329l7.147,1.3Z" transform="translate(70.097 80.522)"/><path class="p" d="M57.076,205.6l3.756-1.749c-.515-.612-1.073-1.213-1.567-1.824l-2.511,1.18L52,202.341c0,.794,0,1.578.064,2.361l5.012.912Z" transform="translate(70.108 80.154)"/><path class="i" d="M50.731,249.194l-11.6,2.973a36,36,0,0,0,2.232,3.778l10.356-2.661,10.431-12.3c-.258-1.4-.558-2.79-.923-4.175l-10.5,12.384Z" transform="translate(69.166 82.699)"/><path class="i" d="M52.764,254.851,42.59,257.459a27.538,27.538,0,0,0,3.305,3.488l7.866-2.007,8.864-10.453a38.633,38.633,0,0,0-.268-4.947l-9.583,11.3Z" transform="translate(69.419 83.192)"/><path class="i" d="M46.439,237.735,35.31,240.59a41.456,41.456,0,0,0,.891,4.11l11.225-2.876,11-12.975c-.5-1.159-1.073-2.286-1.61-3.359L46.439,237.724Z" transform="translate(68.886 81.871)"/><path class="i" d="M48.619,243.491,36.76,246.528a42.163,42.163,0,0,0,1.524,3.949l11.322-2.9,11.021-13.007c-.4-1.256-.837-2.5-1.309-3.713L48.586,243.48Z" transform="translate(68.993 82.264)"/><path class="i" d="M33.606,205.992c-3.7-1.663-7.512-3.219-11.526-5.012a66.537,66.537,0,0,1,5.055,8.328l4.679-1.2Z" transform="translate(67.918 80.078)"/><path class="i" d="M39.436,208.65c-1.32-.719-2.683-1.406-4.067-2.06L32.7,209.745h0l-4.937,1.266c.547,1.159,1.073,2.34,1.545,3.52l6.568-1.685Z" transform="translate(68.334 80.488)"/><path class="i" d="M54.657,260.387l-6.847,1.76a21.055,21.055,0,0,0,6.224,2.962c1.341-1.234,4.121-2.951,5.055-4.636a22.784,22.784,0,0,0,2.865-8.693l-7.3,8.585Z" transform="translate(69.801 83.795)"/><path class="i" d="M39.85,220.237l-8.06,2.06c.376,1.341.73,2.7,1.073,4.078l8-2.05,7.877-9.294c-.837-.794-1.7-1.535-2.565-2.232l-6.3,7.426Z" transform="translate(68.629 80.942)"/><path class="i" d="M42.029,226.111l-8.789,2.254c.29,1.363.569,2.737.816,4.132l8.95-2.3,9.465-11.161c-.719-.923-1.47-1.792-2.232-2.619l-8.22,9.659Z" transform="translate(68.735 81.207)"/><path class="i" d="M37.008,214.688h0L30,216.47c.461,1.256.88,2.533,1.277,3.81l7.426-1.9,5.741-6.772c-1.009-.73-2.05-1.4-3.1-2.028Z" transform="translate(68.498 80.707)"/><path class="i" d="M44.221,231.949l-9.841,2.522c.225,1.374.44,2.769.655,4.175l10.174-2.6,10.5-12.374c-.59-1-1.18-1.942-1.792-2.833a.975.975,0,0,0-.118-.172l-9.573,11.279Z" transform="translate(68.818 81.518)"/><path class="q" d="M45.67,260.608a21.753,21.753,0,0,0,2.3,1.8l6.847-1.76h0l7.3-8.585a30.97,30.97,0,0,0,.268-3.9L53.536,258.6Z" transform="translate(69.645 83.531)"/><path class="q" d="M41.21,255.66c.472.687.966,1.352,1.481,2.007l10.174-2.608h0l9.583-11.311c-.107-1.009-.258-2.028-.44-3.048L51.577,253Z" transform="translate(69.318 82.984)"/><path class="q" d="M38.18,250.223a22.231,22.231,0,0,0,1.073,2.146l11.6-2.973h0l10.5-12.384q-.354-1.341-.773-2.672L49.5,247.325Z" transform="translate(69.096 82.519)"/><path class="q" d="M36.14,244.47c.2.741.429,1.481.665,2.221l11.859-3.037h0L59.4,231.034c-.311-.816-.644-1.62-1-2.4L47.365,241.594Z" transform="translate(68.947 82.101)"/><path class="q" d="M35,238.439a6.743,6.743,0,0,0,.15,1.009c.054.343.118.859.193,1.288l11.129-2.855h0L56.85,225.646c-.386-.751-.783-1.47-1.18-2.146L45.163,235.841Z" transform="translate(68.864 81.725)"/><path class="q" d="M34,232.317c.14.762.279,1.524.408,2.286l9.841-2.522h0L53.821,220.8c-.461-.676-.923-1.309-1.406-1.932L42.95,230.031Z" transform="translate(68.791 81.387)"/><path class="q" d="M32.77,226.221c.172.74.343,1.5.5,2.254l8.789-2.254h0l8.22-9.659c-.537-.569-1.073-1.073-1.631-1.653L40.776,224.2Z" transform="translate(68.701 81.097)"/><path class="q" d="M31.17,220.17c.236.74.451,1.481.665,2.221l8.06-2.06h0l6.3-7.426c-.612-.483-1.223-.955-1.857-1.4L38.6,218.282Z" transform="translate(68.584 80.848)"/><path class="q" d="M37.066,214.767l4.293-5.076c-.676-.408-1.352-.8-2.05-1.18l-3.563,4.207L29.2,214.4c.29.719.569,1.449.837,2.146l7.029-1.8Z" transform="translate(68.439 80.629)"/><path class="q" d="M32.765,209.814l2.672-3.155-2.146-1.009L31.5,207.8,26.82,209c.354.7.708,1.406,1.073,2.146l4.937-1.266Z" transform="translate(68.265 80.419)"/><path class="r" d="M73.474,256.44a9.584,9.584,0,0,1,.075,1.073L67.335,287.7a8.875,8.875,0,0,1-8.875,8.875H43.35a8.833,8.833,0,0,1-5.13-1.642,8.875,8.875,0,0,0,8.8,7.759H62.13a8.875,8.875,0,0,0,8.875-8.875l6.214-30.188a8.843,8.843,0,0,0-3.745-7.19Z" transform="translate(69.099 84.136)"/><path class="s" d="M58.887,296.729a8.875,8.875,0,0,0,8.875-8.875l6.214-30.188a9.584,9.584,0,0,0-.075-1.073,8.832,8.832,0,0,0-5.13-1.642H41.255a8.875,8.875,0,0,0-8.875,8.875l6.214,30.188a9.582,9.582,0,0,0,.075,1.073,8.832,8.832,0,0,0,5.108,1.642Z" transform="translate(68.672 84.027)"/><text class="t" transform="translate(311.061 234.56)"><tspan class="u" x="0" y="0">C</tspan><tspan y="0">ON</tspan><tspan class="v" y="0">T</tspan><tspan class="w" y="0">A</tspan><tspan class="x" y="0">C</tspan><tspan y="0">T</tspan></text><text class="y" transform="translate(359.568 299.459)"><tspan x="0" y="0">US!</tspan></text><path class="c" d="M267.368,61.72c-14.735,0-26.668,8.349-26.668,18.662,0,5.012,2.833,9.54,7.416,12.878l-7.416,16.1,17.493-11.472a36.831,36.831,0,0,0,9.2,1.17c14.724,0,26.668-8.36,26.668-18.673S282.092,61.72,267.368,61.72Z" transform="translate(83.915 69.888)"/><path class="d" d="M258.733,78.608A2.661,2.661,0,1,1,256.082,76,2.661,2.661,0,0,1,258.733,78.608Z" transform="translate(84.845 70.933)"/><path class="d" d="M268.363,78.608A2.661,2.661,0,1,1,265.734,76a2.662,2.662,0,0,1,2.629,2.608Z" transform="translate(85.549 70.933)"/><path class="d" d="M278.033,78.608A2.661,2.661,0,1,1,275.382,76a2.662,2.662,0,0,1,2.651,2.608Z" transform="translate(86.257 70.933)"/><path class="c" d="M52.261,149.533A46.511,46.511,0,0,1,21.4,68.23a1.607,1.607,0,1,1,2.146,2.393,43.313,43.313,0,1,0,28.718-10.9,1.61,1.61,0,0,1,0-3.22,46.511,46.511,0,0,1,0,93.022Z" transform="translate(66.724 69.506)"/><path class="c" d="M24.376,91.572a1.61,1.61,0,0,1-1.6-1.492l-1.32-19.5L1.9,74.422a1.6,1.6,0,0,1-.612-3.134L22.53,67.082a1.62,1.62,0,0,1,1.288.3,1.588,1.588,0,0,1,.622,1.159l1.5,21.313a1.588,1.588,0,0,1-1.481,1.706Z" transform="translate(66.309 70.278)"/><text class="z" transform="translate(94.699 182.364)"><tspan x="0" y="0">24</tspan></text><text class="aa" transform="translate(94.699 203.683)"><tspan x="0" y="0">hours</tspan></text><path class="c" d="M237.6,34.61a1.073,1.073,0,0,1-1.073-1.073V21.313a1.073,1.073,0,0,1,2.146,0V33.537A1.073,1.073,0,0,1,237.6,34.61Z" transform="translate(83.61 66.853)"/><path class="c" d="M244.127,28.076H231.9a1.073,1.073,0,0,1,0-2.146h12.223a1.073,1.073,0,1,1,0,2.146Z" transform="translate(83.193 67.269)"/><path class="ab" d="M260.665,9.342a6.782,6.782,0,1,1-6.782-6.782A6.782,6.782,0,0,1,260.665,9.342Z" transform="translate(84.383 65.559)"/><path class="c" d="M266.692,30.321a3.38,3.38,0,1,1-.99-2.4A3.391,3.391,0,0,1,266.692,30.321Z" transform="translate(85.32 67.342)"/><path class="ab" d="M93.425,56.972a6.782,6.782,0,1,1-6.782-6.782A6.782,6.782,0,0,1,93.425,56.972Z" transform="translate(72.146 69.044)"/><path class="c" d="M110.792,50.423A3.391,3.391,0,1,1,109.811,48a3.391,3.391,0,0,1,.982,2.419Z" transform="translate(73.913 68.811)"/><path class="c" d="M322.953,267.44a1.073,1.073,0,0,1-1.073-1.073V254.143a1.073,1.073,0,1,1,2.146,0v12.223a1.073,1.073,0,0,1-1.073,1.073Z" transform="translate(89.855 83.889)"/><path class="c" d="M329.476,260.906H317.263a1.073,1.073,0,0,1,0-2.146h12.213a1.073,1.073,0,0,1,0,2.146Z" transform="translate(89.438 84.305)"/><path class="ab" d="M303.925,266.872a6.782,6.782,0,1,1-6.782-6.782,6.782,6.782,0,0,1,6.782,6.782Z" transform="translate(87.548 84.403)"/><path class="c" d="M318.252,288.041a3.38,3.38,0,1,1-.99-2.4,3.391,3.391,0,0,1,.99,2.4Z" transform="translate(89.093 86.2)"/><path class="c" d="M318.252,243.771a3.38,3.38,0,1,1-.99-2.4,3.391,3.391,0,0,1,.99,2.4Z" transform="translate(89.093 82.961)"/><path class="c" d="M38.313,170.03a1.073,1.073,0,0,1-1.073-1.073V156.733a1.073,1.073,0,0,1,2.146,0v12.223A1.073,1.073,0,0,1,38.313,170.03Z" transform="translate(69.028 76.762)"/><path class="c" d="M44.847,163.506H32.623a1.073,1.073,0,0,1,0-2.146H44.847a1.073,1.073,0,0,1,0,2.146Z" transform="translate(68.611 77.179)"/><path class="ab" d="M75.555,164.342a6.782,6.782,0,1,1-6.782-6.782A6.782,6.782,0,0,1,75.555,164.342Z" transform="translate(70.839 76.901)"/><path class="c" d="M51.112,181.1a3.391,3.391,0,1,1-3.391-3.391,3.391,3.391,0,0,1,3.391,3.391Z" transform="translate(69.546 78.375)"/></g></g></svg>