<svg xmlns="http://www.w3.org/2000/svg" width="20" height="20" viewBox="0 0 20 20"><defs><style>.a{fill:#b0c1d1;}</style></defs><path class="a" d="M19.388,2.521A9.793,9.793,0,0,0,12.527,0,10.292,10.292,0,0,0,5.184,2.868a9.431,9.431,0,0,0-3.034,7.14A9.723,9.723,0,0,0,5.035,17.05,10.412,10.412,0,0,0,12.823,20a14.69,14.69,0,0,0,5.791-1.2,1.22,1.22,0,0,0,.667-1.579h0a1.235,1.235,0,0,0-1.63-.661,12.282,12.282,0,0,1-4.832,1.053A7.455,7.455,0,0,1,7,15.341a7.663,7.663,0,0,1-2.058-5.32A7.545,7.545,0,0,1,7.151,4.484a7.334,7.334,0,0,1,5.413-2.22,7.224,7.224,0,0,1,5,1.824A5.9,5.9,0,0,1,19.6,8.678a5.143,5.143,0,0,1-.934,3.15,2.528,2.528,0,0,1-1.939,1.257c-.362,0-.543-.192-.543-.579a10.647,10.647,0,0,1,.07-1.106l.766-6.206H14.383l-.169.608a3.436,3.436,0,0,0-2.206-.816,4.236,4.236,0,0,0-3.256,1.5A5.534,5.534,0,0,0,7.4,10.351a5.552,5.552,0,0,0,1.2,3.725,3.667,3.667,0,0,0,2.894,1.416,3.292,3.292,0,0,0,2.585-1.257,2.684,2.684,0,0,0,2.383,1.2,5.081,5.081,0,0,0,4-2A7.222,7.222,0,0,0,22.15,8.621,7.957,7.957,0,0,0,19.388,2.521Zm-6.067,9.388a2.046,2.046,0,0,1-1.667.934,1.2,1.2,0,0,1-1.062-.685,3.285,3.285,0,0,1-.407-1.705,3.345,3.345,0,0,1,.568-2.032,1.7,1.7,0,0,1,1.408-.775,1.764,1.764,0,0,1,1.3.579,2.115,2.115,0,0,1,.568,1.546A3.511,3.511,0,0,1,13.321,11.909Z" transform="translate(-2.15)"/></svg>