<svg xmlns="http://www.w3.org/2000/svg" width="22.917" height="23.078" viewBox="0 0 22.917 23.078"><defs><style>.a{fill:#b0c1d1;}</style></defs><path class="a" d="M6.148,23.078a6.1,6.1,0,0,1-4.256-1.689,5.645,5.645,0,0,1,0-8.185L14.34,1.234a4.582,4.582,0,0,1,6.437.181,4.173,4.173,0,0,1,.189,6.19L9.272,18.85a2.9,2.9,0,0,1-3.985,0,2.64,2.64,0,0,1,0-3.832L13.208,7.4a.7.7,0,0,1,.967,0,.64.64,0,0,1,0,.93L6.254,15.948a1.359,1.359,0,0,0,0,1.972,1.494,1.494,0,0,0,2.051,0L20,6.675a2.923,2.923,0,0,0-.189-4.329,3.209,3.209,0,0,0-4.5-.181L2.86,14.134a4.365,4.365,0,0,0,0,6.324,4.713,4.713,0,0,0,3.289,1.3,4.713,4.713,0,0,0,3.288-1.3L21.885,8.489a.7.7,0,0,1,.967,0,.64.64,0,0,1,0,.93L10.4,21.388A6.1,6.1,0,0,1,6.148,23.078Z" transform="translate(-0.135)"/></svg>