<svg xmlns="http://www.w3.org/2000/svg" xmlns:xlink="http://www.w3.org/1999/xlink" width="784.784" height="516.08" viewBox="0 0 784.784 516.08"><defs><style>.a{fill:#f5edc9;}.b{fill:#e6e6e6;}.c{fill:#ff7882;}.ah,.d,.o,.u{fill:none;stroke-miterlimit:10;}.d{stroke:#fff;}.d,.o,.u{stroke-linecap:round;}.d,.o{stroke-width:0.5px;}.e{fill:url(#a);}.f{fill:#2e2e2e;}.g{fill:#ffa02b;}.h{fill:#b3b3b3;}.i{fill:#999;}.j{fill:url(#b);}.k{fill:#99cfff;}.l{fill:#ccc;}.m{fill:#284c4f;}.n,.w{fill:#fff;}.o{stroke:#e6e6e6;}.p{fill:url(#c);}.q{fill:#3d7478;}.r{fill:#aad162;}.s{fill:#86a34c;}.t{fill:#f2f2f2;}.u{stroke:#ccc;}.v{fill:#ff9b38;}.w{opacity:0.4;}.x{fill:#a35233;}.y{fill:#fad161;}.z{fill:#f2af83;}.aa{fill:#cc946e;}.ab{opacity:0.36;}.ac{fill:#d4812e;}.ad{fill:#1a1a1a;}.ae{opacity:0.15;}.af{fill:url(#d);}.ag{fill:url(#e);}.ah{stroke:#86a34c;}.ai{fill:#c45c61;}.aj{fill:gray;}.ak{fill:#8abae6;}.al{opacity:0.1;}</style><linearGradient id="a" x1="22.43" y1="-0.512" x2="23.452" y2="-0.577" gradientUnits="objectBoundingBox"><stop offset="0.24" stop-color="#f2af83"/><stop offset="0.73" stop-color="#f2af83"/></linearGradient><linearGradient id="b" x1="31.818" y1="40.624" x2="31.99" y2="40.624" xlink:href="#a"/><linearGradient id="c" y1="0.5" x2="1" y2="0.5" gradientUnits="objectBoundingBox"><stop offset="0.24" stop-color="#ff9b38"/><stop offset="0.73" stop-color="#ff9b38"/></linearGradient><linearGradient id="d" x1="10.97" y1="3.892" x2="12.037" y2="3.826" xlink:href="#a"/><linearGradient id="e" x1="-1.029" y1="43.769" x2="-0.848" y2="43.769" xlink:href="#a"/></defs><g transform="translate(0 -0.01)"><g transform="translate(0 0.01)"><path class="a" d="M351.122,147.6a11.556,11.556,0,0,0-.627-23.088,11.073,11.073,0,0,0-3.353.507,18.407,18.407,0,0,0-35.729-.217,11.026,11.026,0,0,0-2.533-.29,11.556,11.556,0,0,0-.917,23.063" transform="translate(420.151 156.683)"/><path class="a" d="M134.855,57.886a18.287,18.287,0,0,0-.989-36.429,19.155,19.155,0,0,0-5.283.772,29.119,29.119,0,0,0-56.5-.314,18.263,18.263,0,1,0-5.476,35.97" transform="translate(69.918 -0.01)"/><ellipse class="b" cx="169.936" cy="10.929" rx="169.936" ry="10.929" transform="translate(321.754 478.928)"/><ellipse class="b" cx="56.308" cy="6.851" rx="56.308" ry="6.851" transform="translate(109.431 415.624)"/><rect class="c" width="34.643" height="257.268" transform="translate(156.351 156.249) rotate(5.04)"/><line class="d" x1="15.295" y1="1.351" transform="translate(170.877 166.269)"/><line class="d" x1="8.299" y1="0.748" transform="translate(177.246 173.868)"/><line class="d" x1="8.323" y1="0.724" transform="translate(176.619 180.864)"/><line class="d" x1="8.299" y1="0.748" transform="translate(176.015 187.836)"/><line class="d" x1="8.323" y1="0.724" transform="translate(175.388 194.833)"/><line class="d" x1="15.295" y1="1.351" transform="translate(167.789 201.346)"/><line class="d" x1="8.323" y1="0.748" transform="translate(174.134 208.946)"/><line class="d" x1="8.323" y1="0.724" transform="translate(173.531 215.942)"/><line class="d" x1="8.323" y1="0.748" transform="translate(172.903 222.914)"/><line class="d" x1="8.299" y1="0.724" transform="translate(172.3 229.91)"/><line class="d" x1="15.295" y1="1.351" transform="translate(164.677 236.448)"/><line class="d" x1="8.323" y1="0.724" transform="translate(171.046 244.047)"/><line class="d" x1="8.299" y1="0.724" transform="translate(170.443 251.02)"/><line class="d" x1="8.323" y1="0.724" transform="translate(169.815 258.016)"/><line class="d" x1="8.323" y1="0.724" transform="translate(169.188 264.988)"/><line class="d" x1="15.295" y1="1.351" transform="translate(161.589 271.526)"/><line class="d" x1="8.299" y1="0.724" transform="translate(167.958 279.125)"/><line class="d" x1="8.323" y1="0.748" transform="translate(167.33 286.097)"/><line class="d" x1="8.299" y1="0.724" transform="translate(166.727 293.093)"/><line class="d" x1="8.323" y1="0.748" transform="translate(166.1 300.066)"/><line class="d" x1="15.319" y1="1.351" transform="translate(158.477 306.603)"/><line class="d" x1="8.323" y1="0.724" transform="translate(164.846 314.203)"/><line class="d" x1="8.299" y1="0.748" transform="translate(164.243 321.175)"/><line class="d" x1="8.323" y1="0.724" transform="translate(163.615 328.171)"/><line class="d" x1="8.299" y1="0.748" transform="translate(163.012 335.143)"/><path class="e" d="M46.6,111.289,52.776,98.02l11.29,9.336-2.412,10.06-7.792,1.761Z" transform="translate(65.822 138.428)"/><path class="c" d="M62.824,131.545c-.193,0-.6.193-1.182.314l-1.182.217a8.54,8.54,0,0,1-8.54-2.654l14.306,63.352a8.516,8.516,0,0,0,8.54,2.654l1.182-.217a7.406,7.406,0,0,0,1.158-.314,8.564,8.564,0,0,0,6.586-6.055L69.386,125.49a8.564,8.564,0,0,1-6.562,6.055Z" transform="translate(73.337 177.229)"/><path class="f" d="M49.777,101.57a9.361,9.361,0,0,0,1.206-.217,9.489,9.489,0,0,0,1.158-.314,10.206,10.206,0,0,0,1.206-.41L50.163,98l-1.713,3.667A9.841,9.841,0,0,0,49.777,101.57Z" transform="translate(68.435 138.4)"/><rect class="g" width="5.959" height="120.962" transform="translate(112.419 249.775) rotate(-12.71)"/><rect class="g" width="5.959" height="120.962" transform="translate(118.257 248.451) rotate(-12.71)"/><rect class="g" width="5.959" height="120.962" transform="translate(124.076 247.131) rotate(-12.71)"/><rect class="b" width="2.268" height="17.901" transform="translate(139.576 369.969) rotate(-102.71)"/><rect class="h" width="2.268" height="5.018" transform="translate(149.793 367.662) rotate(-102.71)"/><rect class="i" width="2.268" height="0.675" transform="translate(153.248 366.894) rotate(-102.71)"/><rect class="i" width="2.268" height="0.941" transform="translate(155.208 366.433) rotate(-102.71)"/><path class="j" d="M46.6,105.822l17.466-3.932S56.371,110.575,46.6,105.822Z" transform="translate(65.822 143.894)"/><path class="k" d="M141.859,236.337h-80.7L45.48,131.49H157.516Z" transform="translate(64.24 185.704)"/><rect class="l" width="65.403" height="77.996" transform="translate(337.99 348.846)"/><path class="l" d="M282.264,199.087H120v-2.413a19.734,19.734,0,0,1,19.734-19.734h122.7a19.734,19.734,0,0,1,19.734,19.734Z" transform="translate(169.499 249.902)"/><path class="b" d="M278.239,175.12H232.16v61.832h46.079V230s-10.977-16.622,0-53.075Z" transform="translate(327.924 247.331)"/><path class="m" d="M380.111,175.51H173.674a34.764,34.764,0,1,0,0,69.528H380.111v-9.216s-17.539-19.831,0-50.662Z" transform="translate(196.209 247.882)"/><path class="n" d="M372.825,179.5H168.318a25.355,25.355,0,0,0,0,50.662H372.825S355.286,210.356,372.825,179.5Z" transform="translate(203.496 253.518)"/><line class="o" x1="214.736" transform="translate(361.584 447.662)"/><line class="o" x1="214.736" transform="translate(361.584 458.156)"/><line class="o" x1="214.736" transform="translate(361.584 468.651)"/><path class="p" d="M243.906,217.341l-11.773-8.878-11.773,8.878V185.11h23.546Z" transform="translate(311.257 261.442)"/><path class="m" d="M393.046,173.03H180.7l-29.818,6.538H363.228Z" transform="translate(213.117 244.379)"/><path class="q" d="M238.9,188.639v-9.071l29.818-6.538V180Z" transform="translate(337.445 244.379)"/><path class="q" d="M238.9,213.455v-9.071l29.818-6.514v6.948Z" transform="translate(337.445 279.466)"/><rect class="b" width="367.206" height="268.197" rx="5.54" transform="translate(187.692 102.169)"/><path class="f" d="M434.482,42.36H87.928a10.543,10.543,0,0,0-9.988,8.516V273.887H444.784V53.7a10.88,10.88,0,0,0-10.3-11.339Z" transform="translate(110.09 59.809)"/><rect class="n" width="341.054" height="203.687" transform="translate(200.502 115.1)"/><path class="h" d="M169.091,152.477H153.048a4.608,4.608,0,0,1-4.608-4.584h0a4.608,4.608,0,0,1,4.608-4.584h16.043a4.584,4.584,0,0,1,4.584,4.584h0a4.584,4.584,0,0,1-4.584,4.584Z" transform="translate(209.67 202.4)"/><rect class="r" width="148.634" height="152.47" rx="3.22" transform="translate(222.818 144.267)"/><rect class="s" width="134.038" height="137.488" transform="translate(237.438 148.465)"/><path class="t" d="M96.53,208.216h0a226.171,226.171,0,0,1,138.574,0h0V66.048h0a225.809,225.809,0,0,0-138.574,0h0Z" transform="translate(136.348 77.882)"/><path class="u" d="M210.994,71.925h0a174.327,174.327,0,0,0-106.994,0" transform="translate(146.899 89.688)"/><path class="u" d="M210.938,77.416h0a174.327,174.327,0,0,0-106.9,0" transform="translate(146.956 97.466)"/><path class="u" d="M210.994,82.925h0a174.327,174.327,0,0,0-106.994,0" transform="translate(146.899 105.225)"/><path class="u" d="M210.938,88.5h0a174.327,174.327,0,0,0-106.9,0" transform="translate(146.956 113.116)"/><path class="u" d="M210.938,94.036h0a174.327,174.327,0,0,0-106.9,0" transform="translate(146.956 120.941)"/><path class="u" d="M210.938,99.576h0a174.327,174.327,0,0,0-106.9,0" transform="translate(146.956 128.766)"/><path class="u" d="M210.938,105.116h0a174.327,174.327,0,0,0-106.9,0" transform="translate(146.956 136.592)"/><path class="u" d="M210.938,110.635h0a174.689,174.689,0,0,0-106.9,0" transform="translate(146.956 144.413)"/><rect class="r" width="148.634" height="152.47" rx="3.22" transform="translate(520.109 296.736) rotate(180)"/><rect class="s" width="134.038" height="137.488" transform="translate(505.514 285.952) rotate(180)"/><path class="t" d="M292.568,208.216h0a226.243,226.243,0,0,0-138.6,0h0V66.048h0a225.882,225.882,0,0,1,138.6,0h0Z" transform="translate(217.482 77.881)"/><path class="u" d="M159.6,71.916h0a174.327,174.327,0,0,1,106.9,0" transform="translate(225.434 89.697)"/><path class="u" d="M159.6,77.416h0a174.327,174.327,0,0,1,106.9,0" transform="translate(225.434 97.466)"/><path class="u" d="M159.6,82.916h0a174.327,174.327,0,0,1,106.9,0" transform="translate(225.434 105.234)"/><path class="u" d="M159.6,88.5h0a174.327,174.327,0,0,1,106.9,0" transform="translate(225.434 113.116)"/><path class="u" d="M159.6,94.036h0a174.327,174.327,0,0,1,106.9,0" transform="translate(225.434 120.941)"/><path class="u" d="M159.6,99.576h0a174.327,174.327,0,0,1,106.9,0" transform="translate(225.434 128.766)"/><path class="u" d="M159.6,105.116h0a174.327,174.327,0,0,1,106.9,0" transform="translate(225.434 136.592)"/><path class="u" d="M159.6,110.635h0a174.689,174.689,0,0,1,106.9,0" transform="translate(225.434 144.413)"/><path class="v" d="M193.124,55.66,191.58,82.415l8.4-5.718,7.7,6.683,1.472-25.5C203.835,56.939,198.48,56.215,193.124,55.66Z" transform="translate(270.605 78.595)"/><path class="w" d="M179.958,273.646,378.893,42.36H284.564L85.63,273.646Z" transform="translate(120.952 59.809)"/><ellipse class="b" cx="70.372" cy="10.06" rx="70.372" ry="10.06" transform="translate(174.399 495.96)"/><path class="x" d="M131.03,103.55c-8.13,2.75-11.894,9.65-13.848,20.024-1.568,8.468-1.279,20.1-7.02,26.73-6.924,8.034-16.55,13.22-20.723,23.208-3.088,7.406-3.739,17.684.289,25.379,8.251,15.754,30.856,20.337,53.364,16.284,6.538-1.182,24.583-11.556,25.379-39.517.434-15.536-8.974-26.248-10.084-36.815-1.568-14.909-.8-24.125-4.511-30.832C148.666,98.532,140.2,100.511,131.03,103.55Z" transform="translate(122.764 142.693)"/><path class="y" d="M136.462,123.766s2.412,6.8-8.709,17.949a191.835,191.835,0,0,0-16.887,18.866l32.424,25.983L132.771,194.5s-42.653-25.162-42.219-35.005S130.237,102.994,136.462,123.766Z" transform="translate(127.899 167.349)"/><path class="q" d="M122.635,207s19.3,9.795,25.476,9.65,1.713,2.7-5.042,3.546a36.5,36.5,0,0,1-14.475-1.4,37.3,37.3,0,0,1-13.076-5.6H115.4c-2.412-1.858-2.581-5.886.555-5.959Z" transform="translate(160.447 292.362)"/><path class="z" d="M121.507,209.912l-.41-5.042-6.707.531.386,4.68Z" transform="translate(161.575 289.353)"/><path class="z" d="M121.351,207s3.739,1.833,11.894,5.525c7.672,3.474,1.906,3.257-2.413,2.268a50.927,50.927,0,0,1-16.333-7.623Z" transform="translate(161.73 292.362)"/><path class="z" d="M125.614,143.9l-22.074,5.452s7.455,59.926,22.677,78.165c0,0-.193,58.648,3.884,68.684l6.731-.169s6.49-59.251,7.913-68.032C146.434,217.433,139.221,196.878,125.614,143.9Z" transform="translate(146.25 203.233)"/><path class="aa" d="M134.734,170.05c-4.68,0-14.692.145-25.934.507,1.254,3.643,2.605,7.069,4.029,10.157a106.343,106.343,0,0,0,22.243-9.216C134.976,171.039,134.855,170.532,134.734,170.05Z" transform="translate(153.679 240.17)"/><path class="z" d="M124.225,106c4.825,4.535,7.093,13.2,3.4,18.914s-12.062,5.621-17.249,1.013c-4.68-4.077-7.044-11.508-4.825-16.887C108.4,101.92,118.074,100.376,124.225,106Z" transform="translate(147.904 144.878)"/><path class="z" d="M117.154,107.447l-11.483-.627-1.5,27.744a7.238,7.238,0,0,0,6.8,7.575h0a7.237,7.237,0,0,0,7.6-7.575Z" transform="translate(147.134 150.858)"/><path class="x" d="M121.036,107.013s2.1,17.78-13.7,18.311c-11.049.338-4.825-27.6,10.012-24.993,20.989,3.619,14.789,14.282,14.789,14.282S128.949,106.675,121.036,107.013Z" transform="translate(143.662 141.449)"/><path class="n" d="M105.1,112.41a2.075,2.075,0,1,0-.012-1.594,2.075,2.075,0,0,0,.012,1.594Z" transform="translate(148.215 154.677)"/><path class="aa" d="M114.418,117.85l-7.648-5.5,7.551,3.474Z" transform="translate(150.812 158.669)"/><path class="g" d="M101.886,112.635a10.133,10.133,0,0,1,4.608-10.615" transform="translate(143.633 144.078)"/><path class="q" d="M87.306,204.382s11.483,18.287,16.887,21.375,0,3.185-6.152.458a36.622,36.622,0,0,1-11.749-8.685,37.1,37.1,0,0,1-8.323-11.508v-.145c-1.206-2.895.8-6.369,3.546-4.825Z" transform="translate(109.626 283.424)"/><path class="z" d="M85.062,206.617l4.777-6.562-8.564-.965-2.075,4.2Z" transform="translate(111.869 281.189)"/><path class="z" d="M85.062,204.159s2.268,3.474,7.358,10.832c4.825,6.924,0,3.763-3.112.772A50.928,50.928,0,0,1,79.2,200.83Z" transform="translate(111.869 283.647)"/><path class="z" d="M160.369,152.576l-31.362-8.516s-11.869,53.8-9.312,77.417c0,0-34.619,38.962-39.854,56.645l5.573,3.5s43.208-38.286,49.263-44.824C142.034,228.98,156.075,202.9,160.369,152.576Z" transform="translate(112.773 203.459)"/><path class="aa" d="M126.67,170.26c-10.108.338-21.206.868-30.325,1.737a97.732,97.732,0,0,0,.169,11.459,82.026,82.026,0,0,0,25.452-1.013Q124.354,177.136,126.67,170.26Z" transform="translate(135.954 240.467)"/><g class="ab" transform="translate(234.977 370.752)"><path d="M140.463,153.69l-35.029,13.486L97.4,156.488Z" transform="translate(-97.4 -153.69)"/></g><path class="n" d="M126.505,134.8l9.047,59.106L103.08,196.58l7.5-71.53Z" transform="translate(145.6 176.608)"/><path class="g" d="M139.261,119.246s-20.772-15.03-25.886,15.633C108.985,161.272,91.47,252.344,91.47,252.344s49.022,7.43,74.522-8.95Z" transform="translate(129.201 163.208)"/><path class="ac" d="M124.353,142.264l2.219,10.591L108.02,126.51Z" transform="translate(152.577 178.67)"/><path class="k" d="M110.65,118.825s8.034-2.557,20.41,10.977a222.969,222.969,0,0,0,21.085,20.627L183.869,114l8.661,12.473s-31.362,48.25-42.653,47.309S86.26,125.073,110.65,118.825Z" transform="translate(147.245 161)"/><path class="z" d="M145.163,130.875s10.108-8.54,8.492-14.885-7.6-6.417-8.661-5.283-4.391,5.645-4.391,5.645l-3.353,3.136Z" transform="translate(193.865 155.56)"/><path class="z" d="M137.25,125.629s9.843-16.188,13.172-19.3-.748,7.72-.748,7.72L142.7,129.416Z" transform="translate(193.865 149.371)"/><path class="y" d="M110.65,118.825s8.034-2.557,20.41,10.977a222.969,222.969,0,0,0,21.085,20.627L183.869,114l8.661,12.473s-31.362,48.25-42.653,47.309S86.26,125.073,110.65,118.825Z" transform="translate(147.245 161)"/><path class="z" d="M145.163,130.875s10.108-8.54,8.492-14.885-7.6-6.417-8.661-5.283-4.391,5.645-4.391,5.645l-3.353,3.136Z" transform="translate(193.865 155.56)"/><path class="z" d="M137.25,125.629s9.843-16.188,13.172-19.3-.748,7.72-.748,7.72L142.7,129.416Z" transform="translate(193.865 149.371)"/><path class="f" d="M114.013,144.373q5.935-14.982,1.086-20.747a11.8,11.8,0,0,0-6.176-3.112,18.6,18.6,0,0,1-7.237-3.257c-4.077-3.305-4.2-7.768-.338-14.475l-.675-.362c-4.053,7.093-3.908,11.845.531,15.44a19.3,19.3,0,0,0,7.406,3.377,11.267,11.267,0,0,1,5.814,2.895c3.04,3.546,2.63,10.277-1.23,19.975Z" transform="translate(138.068 144.643)"/><rect class="f" width="24.197" height="13.148" transform="translate(265.237 242.579) rotate(143.79)"/><rect class="f" width="30.204" height="2.533" transform="translate(260.832 231.498) rotate(143.79)"/><path class="ad" d="M118.218,97.066V96.8a.193.193,0,0,0-.265,0L99.111,110.576h0a.193.193,0,0,0,0,.265.169.169,0,0,0,.265,0l18.817-13.8Z" transform="translate(139.919 136.632)"/><path class="q" d="M106.256,119.054a2.051,2.051,0,0,0-2.581,1.4,2.075,2.075,0,0,0,1.4,2.606,2.123,2.123,0,0,0,2.606-1.423,2.075,2.075,0,0,0-1.423-2.581Z" transform="translate(146.308 168.008)"/><path class="q" d="M103.926,121.856l-1.568,5.356a.29.29,0,0,0,.193.362l3.836,1.11a.265.265,0,0,0,.338-.193l1.592-5.356a2.051,2.051,0,0,0-1.4-2.413l-.458-.121A2,2,0,0,0,103.926,121.856Z" transform="translate(144.561 170.176)"/><rect class="h" width="65.403" height="17.225" transform="translate(337.99 370.366)"/><g class="ae" transform="translate(533.933 252.539)"><path d="M221.32,125.534l9.65,96.982a11.363,11.363,0,0,0,11.339-11.363V104.69Z" transform="translate(-221.32 -104.69)"/></g><path class="af" d="M219.54,125.575,227.863,98l24.607,15.078-1.906,20.289-14.74,5.6Z" transform="translate(310.099 138.4)"/><path class="c" d="M258.239,162.395c-.338.145-1.11.507-2.2.917a23.011,23.011,0,0,1-2.244.748c-4.825,1.447-12.376,2.412-17.37-2.8L281.809,280.8c4.994,5.283,12.545,4.246,17.37,2.8a10.891,10.891,0,0,0,2.244-.748c1.086-.41,1.858-.772,2.2-.917,4.56-2.147,10.88-6.393,11.122-13.655L269.36,148.74C269.167,156.026,262.8,160.248,258.239,162.395Z" transform="translate(333.956 210.07)"/><path class="f" d="M224.557,105.02a10.942,10.942,0,0,0,2.268-.748,23.061,23.061,0,0,0,2.171-.941,24.114,24.114,0,0,0,2.219-1.134l-6.8-4.2L222,105.648C222.965,105.455,223.809,105.237,224.557,105.02Z" transform="translate(313.573 138.4)"/><path class="q" d="M252.5,104.28l-11,4.174-10.977,4.174-10.977,4.149,84.51,222.649,10.977-4.174,11-4.149,10.977-4.174Z" transform="translate(310.113 147.27)"/><rect class="b" width="4.439" height="35.247" transform="translate(615.821 490.876) rotate(-110.78)"/><rect class="h" width="4.439" height="9.891" transform="translate(634.995 483.535) rotate(-110.79)"/><rect class="i" width="4.439" height="1.351" transform="translate(641.494 481.059) rotate(-110.79)"/><rect class="i" width="4.439" height="1.833" transform="translate(645.231 479.637) rotate(-110.79)"/><path class="ag" d="M219.54,116.747l32.93-12.5S239.95,123.333,219.54,116.747Z" transform="translate(310.099 147.228)"/><path class="b" d="M117.6,210.321c0,5.814-24.125,10.736-53.919,11s-54.04-4.27-54.088-10.084,24.125-10.736,53.919-11S117.549,204.507,117.6,210.321Z" transform="translate(13.546 282.793)"/><path class="ah" d="M40.232,247.905C33,225.952,27.639,191.911,44.913,155.7" transform="translate(47.148 219.901)"/><path class="ah" d="M40.44,198.3A118.43,118.43,0,0,0,25,170.46" transform="translate(35.312 240.749)"/><path class="ah" d="M31.665,260.757A535.956,535.956,0,0,0,30,158.54" transform="translate(42.375 223.912)"/><path class="r" d="M59.1,199.692S39.918,158.825,3.61,152.48C3.634,152.48,11.788,185.652,59.1,199.692Z" transform="translate(5.099 215.353)"/><path class="s" d="M3.62,152.48s42.074,26.73,55.487,47.212C59.083,199.692,15.224,189.922,3.62,152.48Z" transform="translate(5.113 215.353)"/><path class="r" d="M42.624,214.381s14.62-55.294-15.488-90.951C27.136,123.43,8.053,162.247,42.624,214.381Z" transform="translate(30.908 174.32)"/><path class="s" d="M27.424,123.43s19.131,60.192,15.488,90.951C42.912,214.381,8.341,169.1,27.424,123.43Z" transform="translate(30.621 174.32)"/><path class="r" d="M35.989,211.5S77,171.619,69.546,125.54C69.546,125.54,33.214,148.989,35.989,211.5Z" transform="translate(50.62 177.3)"/><path class="s" d="M69.67,125.54S55.2,186.986,36.113,211.5C36.113,211.5,29.816,154.852,69.67,125.54Z" transform="translate(50.496 177.3)"/><path class="ah" d="M32.39,224.357a92.109,92.109,0,0,1,29.5-63.087" transform="translate(45.751 227.768)"/><path class="r" d="M41.49,194.028s40-16.188,47.912-50.518C89.4,143.51,57.34,149.517,41.49,194.028Z" transform="translate(58.604 202.682)"/><path class="s" d="M89.4,143.51S61.731,182.3,41.49,194.028C41.49,194.028,53.191,152.653,89.4,143.51Z" transform="translate(58.604 202.682)"/><path class="ah" d="M23.65,216.47A92.157,92.157,0,0,1,75.3,169.74" transform="translate(33.405 239.732)"/><path class="r" d="M41,188.169s43.135.579,63.738-27.985C104.617,160.185,72.724,153.285,41,188.169Z" transform="translate(57.912 225.452)"/><path class="s" d="M104.617,160.231S64.063,185.249,41,188.216C41,188.216,67.706,154.61,104.617,160.231Z" transform="translate(57.912 225.406)"/><path class="ah" d="M44.24,236.577c2.026-23.039-.724-57.369-25.91-88.587" transform="translate(25.891 209.01)"/><path class="r" d="M52.568,197.189S3.45,167.9,0,121.34C0,121.34,40.8,135.743,52.568,197.189Z" transform="translate(0 171.367)"/><path class="s" d="M0,121.34s28.443,56.4,52.568,75.849C52.568,197.189,45.572,140.64,0,121.34Z" transform="translate(0 171.367)"/><path class="c" d="M105.077,175.43H13.04v15.536h4.753L28.649,246.14H88.792l10.832-55.174h5.452Z" transform="translate(18.419 247.769)"/><path class="ai" d="M15.01,181.87l2,10.108L96.842,181.87Z" transform="translate(21.202 256.866)"/><rect class="l" width="22.171" height="28.878" transform="translate(421.824 386.288)"/><rect class="aj" width="3.788" height="3.788" transform="translate(430.63 405.323)"/><rect class="aj" width="3.788" height="3.788" transform="translate(430.63 392.006)"/><path class="k" d="M254.372,158H184v39.348h70.276a19.662,19.662,0,0,0,19.662-19.686h0A19.662,19.662,0,0,0,254.372,158Zm.41,28.636a9.336,9.336,0,1,0,0-.1Z" transform="translate(259.899 223.149)"/><g class="ae" transform="translate(441.269 386.288)"><path d="M185.636,160.13v28.878H182.91Z" transform="translate(-182.91 -160.13)"/></g><path class="ak" d="M343.248,122.33s1.013-15.1-15.995-9.915c-28.66,8.733-41.977,12.062-41.977,12.062l-44.824-3.112-.651,9.795s36.187,9.795,47.212,9.1C300.595,139.483,343.8,136.854,343.248,122.33Z" transform="translate(338.716 157.229)"/><path class="z" d="M247.741,122.25s-12.666-18.07-10.567-9c2.292,9.964,3.619,9.288,3.281,11.17s-2.871,0-5.5.893,12.062,6.731,12.062,6.731Z" transform="translate(331.426 156.344)"/><path class="b" d="M409.357,206.215c0,3.739-32.038,7.237-71.675,7.841s-71.844-1.954-71.892-5.693,32.038-7.237,71.7-7.841S409.309,202.476,409.357,206.215Z" transform="translate(375.426 283.086)"/><path class="s" d="M294.362,198.447s-19.3,11.266-25.886,11.508-1.616,2.9,5.452,3.377c5.6.386,29.095-3.45,29.095-3.45a70.211,70.211,0,0,0-1.665-11.652Z" transform="translate(374.863 279.974)"/><path class="z" d="M251.086,130.394s-14.764-16.67-11.218-8.058c3.884,9.457,4.415,9.457,4.367,11.363s-2.847.386-5.283,1.785,13.2,5.838,13.2,5.838Z" transform="translate(337.152 169.285)"/><path class="z" d="M251.086,130.394s-14.764-16.67-11.218-8.058c3.884,9.457,4.415,9.457,4.367,11.363s-2.847.386-5.283,1.785,13.2,5.838,13.2,5.838Z" transform="translate(337.152 169.285)"/><path class="z" d="M277.4,201.413l.145-5.283,7,.193L284.4,201.2Z" transform="translate(391.826 277.008)"/><path class="q" d="M281.4,133l23.4,3.45s-5.645,62.411-12.424,86.85c0,0,5.79,41.591,1.158,64.269l-9.216.651s-9.1-53.075-11.459-62.1C270.065,215.338,272.622,189.187,281.4,133Z" transform="translate(383.89 187.837)"/><path d="M280.249,145.088a.843.843,0,0,0-.169-.338Z" transform="translate(395.611 204.434)"/><path class="m" d="M280.92,194.724a407.732,407.732,0,0,0,6.924-43.811l-2.171-1.833C287.192,153.712,283.019,160.057,280.92,194.724Z" transform="translate(396.797 210.55)"/><path class="s" d="M323.391,189.606s-2.147,22.364-5.742,27.744,1.4,3.016,5.935-2.412c3.57-4.318,14.161-25.645,14.161-25.645A68.831,68.831,0,0,0,327.3,183.84Z" transform="translate(446.942 259.648)"/><path class="z" d="M321.768,191.343l-4.2-3.184,4.222-5.549,3.884,2.943Z" transform="translate(448.565 257.911)"/><path class="q" d="M274.12,139.29l31.362.265s13.727,4.608,38.069,56.838a139.2,139.2,0,0,1,42.942,49.721l-6.514,6.658s-43.618-38.865-51.362-43.956C319.4,202.714,299.355,181.364,274.12,139.29Z" transform="translate(387.193 196.722)"/><path class="x" d="M280.779,92.67a109.157,109.157,0,0,1-12.062.507c-4.439-.193.482,17.611.482,17.611Z" transform="translate(376.939 130.871)"/><path class="m" d="M274.622,145.515l-.772,5.79,39.879-9.385" transform="translate(386.811 200.437)"/><path class="k" d="M277.661,113.207s-5.935,6.948-8.178,24.439c-1.833,14.161,3.836,21.712,4.825,31.073,2.051,19.782,4.342,25.838,4.342,25.838l42-6.779s-2.581-30.976-9.312-66.44C308.854,108.382,293.245,106.549,277.661,113.207Z" transform="translate(380.13 154.555)"/><path class="z" d="M269.958,100.784c-4.149,7.841-1.4,16.622,2.22,21.954,4.608,6.8,14.475,3.5,19.179-3.233,4.149-5.983,4.825-15.1.676-20.651a13.293,13.293,0,0,0-22.074,1.93Z" transform="translate(378.375 132.528)"/><path class="z" d="M272.05,99.114l11.869-1.255,3.016,28.323c.531,4.946-10.977,11.315-10.977,11.315-2.9.748-2.244-5.911-2.244-10.35Z" transform="translate(384.269 138.202)"/><path class="x" d="M274.76,100.557s14.041-4.463,13.751,18.19c-.169,12.931,28.685-24.125-6.176-26.079-19.3-1.11-14.21,17.394-14.21,17.394S267.4,100.774,274.76,100.557Z" transform="translate(377.868 130.801)"/><g class="al" transform="translate(657.621 256.858)"><path d="M272.759,111.932l6.514-5.452-6.683,2.509Z" transform="translate(-272.59 -106.48)"/></g><path class="x" d="M268.19,100.79s15.247-3.353,15.585,6.49c.169,4.825,7.527,2.412,6.562-.844C283.413,82.985,268.19,100.79,268.19,100.79Z" transform="translate(378.816 133.198)"/><path class="z" d="M279.933,104.61a2.413,2.413,0,0,1-3.619,1.11,3.329,3.329,0,0,1-.434-4.27,2.413,2.413,0,0,1,3.619-1.11,3.329,3.329,0,0,1,.434,4.27Z" transform="translate(388.859 141.102)"/><path class="k" d="M345.372,123.085s-1.447-15.054-17.394-7.237c-26.851,13.293-39.444,18.721-39.444,18.721l-44.7,4.608,1.062,10.929s37.1,2.244,47.912-.241C306.024,146.9,348.291,137.343,345.372,123.085Z" transform="translate(344.408 160.431)"/><path class="z" d="M251.086,130.394s-14.764-16.67-11.218-8.058c3.884,9.457,4.415,9.457,4.367,11.363s-2.847.386-5.283,1.785,13.2,5.838,13.2,5.838Z" transform="translate(337.152 169.285)"/></g></g></svg>