<svg xmlns="http://www.w3.org/2000/svg" width="21.461" height="34.338" viewBox="0 0 21.461 34.338"><defs><style>.a{fill:#b0c1d1;}</style></defs><path class="a" d="M18.242,0H3.219A3.22,3.22,0,0,0,0,3.219v27.9a3.22,3.22,0,0,0,3.219,3.219H18.242a3.22,3.22,0,0,0,3.219-3.219V3.219A3.22,3.22,0,0,0,18.242,0ZM10.731,32.192a2.146,2.146,0,1,1,2.146-2.146A2.144,2.144,0,0,1,10.731,32.192Zm7.511-7.243a.807.807,0,0,1-.8.8H4.024a.807.807,0,0,1-.8-.8V4.024a.807.807,0,0,1,.8-.8H17.437a.807.807,0,0,1,.8.8Z"/></svg>