<svg xmlns="http://www.w3.org/2000/svg" xmlns:xlink="http://www.w3.org/1999/xlink" width="155" height="46" viewBox="0 0 155 46"><defs><style>.a{fill:#fff;}.b{fill:#3a7f84;}.c{fill:url(#a);}</style><linearGradient id="a" x1="-1.199" y1="2.436" x2="-1.199" y2="1.535" gradientUnits="objectBoundingBox"><stop offset="0" stop-color="#1a1a1a" stop-opacity="0.102"/><stop offset="0.123" stop-color="#212121" stop-opacity="0.153"/><stop offset="0.308" stop-color="#353535" stop-opacity="0.227"/><stop offset="0.532" stop-color="#575757" stop-opacity="0.318"/><stop offset="0.783" stop-color="#858585" stop-opacity="0.42"/><stop offset="1" stop-color="#b3b3b3" stop-opacity="0.51"/></linearGradient></defs><path class="a" d="M156.474,43.076a4.4,4.4,0,0,1-4.4,4.4H7.971a4.406,4.406,0,0,1-4.409-4.4V7.969A4.412,4.412,0,0,1,7.971,3.561h144.1a4.405,4.405,0,0,1,4.4,4.408V43.076Z" transform="translate(-2.521 -2.52)"/><path class="a" d="M149.567,46H5.433A5.437,5.437,0,0,1,0,40.57V5.436A5.441,5.441,0,0,1,5.433,0H149.566A5.443,5.443,0,0,1,155,5.436V40.569A5.437,5.437,0,0,1,149.567,46Z" transform="translate(0 0)"/><path class="b" d="M156.474,43.076a4.4,4.4,0,0,1-4.4,4.4H7.971a4.406,4.406,0,0,1-4.409-4.4V7.969A4.412,4.412,0,0,1,7.971,3.561h144.1a4.405,4.405,0,0,1,4.4,4.408V43.076Z" transform="translate(-2.521 -2.52)"/><path class="a" d="M71.478,40.744a6.78,6.78,0,0,1,3.23-5.689A6.947,6.947,0,0,0,69.237,32.1c-2.3-.242-4.534,1.377-5.706,1.377-1.2,0-3-1.353-4.947-1.314A7.284,7.284,0,0,0,52.454,35.9C49.8,40.487,51.78,47.23,54.32,50.939c1.271,1.818,2.755,3.845,4.7,3.773,1.9-.077,2.611-1.211,4.906-1.211,2.273,0,2.94,1.211,4.922,1.165,2.04-.032,3.325-1.825,4.551-3.658a14.992,14.992,0,0,0,2.081-4.238,6.56,6.56,0,0,1-4-6.028ZM67.734,29.658a6.673,6.673,0,0,0,1.528-4.783,6.8,6.8,0,0,0-4.4,2.274A6.35,6.35,0,0,0,63.3,31.755,5.617,5.617,0,0,0,67.734,29.658Z" transform="translate(-36.229 -17.935)"/><path class="c" d="M330.736,0H252.108l30.8,46h47.831a5.492,5.492,0,0,0,5.533-5.434V5.436A5.493,5.493,0,0,0,330.736,0Z" transform="translate(-181.268 0)"/><g transform="translate(46.782 20.279)"><path class="a" d="M182.956,87.812H180.3l-1.455-4.572h-5.059L172.4,87.812h-2.587l5.013-15.566h3.1Zm-4.551-6.49-1.316-4.065q-.209-.623-.785-2.932h-.047q-.232.993-.739,2.932l-1.294,4.065Zm17.418.74a6.355,6.355,0,0,1-1.556,4.525,4.563,4.563,0,0,1-3.461,1.478,3.465,3.465,0,0,1-3.206-1.592v5.889h-2.494V80.277q0-1.8-.092-3.689h2.194l.139,1.779h.047a4.438,4.438,0,0,1,7.1-.441A6.206,6.206,0,0,1,195.824,82.062Zm-2.541.091a4.626,4.626,0,0,0-.739-2.7,2.556,2.556,0,0,0-2.171-1.108,2.594,2.594,0,0,0-1.674.612,2.837,2.837,0,0,0-.982,1.606,3.255,3.255,0,0,0-.116.759v1.873a3,3,0,0,0,.751,2.068,2.494,2.494,0,0,0,1.952.843,2.557,2.557,0,0,0,2.194-1.085A4.776,4.776,0,0,0,193.282,82.153Zm15.454-.091a6.355,6.355,0,0,1-1.556,4.525,4.565,4.565,0,0,1-3.462,1.478,3.465,3.465,0,0,1-3.206-1.592v5.889h-2.494V80.277q0-1.8-.092-3.689h2.194l.139,1.779h.047a4.439,4.439,0,0,1,7.1-.441A6.212,6.212,0,0,1,208.736,82.062Zm-2.542.091a4.627,4.627,0,0,0-.741-2.7,2.552,2.552,0,0,0-2.169-1.108,2.605,2.605,0,0,0-1.677.612,2.836,2.836,0,0,0-.98,1.606,3.333,3.333,0,0,0-.117.759v1.873a3.013,3.013,0,0,0,.75,2.068,2.5,2.5,0,0,0,1.954.843,2.554,2.554,0,0,0,2.194-1.085A4.776,4.776,0,0,0,206.194,82.153Zm16.98,1.292a4.157,4.157,0,0,1-1.384,3.234,6.136,6.136,0,0,1-4.241,1.363,7.4,7.4,0,0,1-4.032-.97l.577-2.078a6.941,6.941,0,0,0,3.6.971,3.4,3.4,0,0,0,2.194-.635,2.074,2.074,0,0,0,.787-1.7,2.173,2.173,0,0,0-.648-1.594,6.009,6.009,0,0,0-2.148-1.2q-4.089-1.525-4.09-4.459a3.936,3.936,0,0,1,1.444-3.141,5.71,5.71,0,0,1,3.823-1.225,7.557,7.557,0,0,1,3.534.739l-.626,2.033a6.181,6.181,0,0,0-2.992-.716,3.043,3.043,0,0,0-2.064.647,1.851,1.851,0,0,0-.626,1.411A1.906,1.906,0,0,0,217,77.654a8.08,8.08,0,0,0,2.263,1.2,7.672,7.672,0,0,1,2.957,1.893,3.944,3.944,0,0,1,.951,2.7Zm8.268-4.986h-2.749v5.449q0,2.079,1.455,2.077a4.383,4.383,0,0,0,1.108-.116l.069,1.894a5.653,5.653,0,0,1-1.94.276,2.99,2.99,0,0,1-2.311-.9,4.421,4.421,0,0,1-.832-3.026V78.455H224.6V76.583h1.638V74.528l2.45-.739v2.794h2.749Zm12.381,3.648a6.156,6.156,0,0,1-1.479,4.249,5.272,5.272,0,0,1-4.111,1.709,5.026,5.026,0,0,1-3.939-1.638,5.969,5.969,0,0,1-1.467-4.134,6.106,6.106,0,0,1,1.513-4.272,5.245,5.245,0,0,1,4.078-1.663A5.131,5.131,0,0,1,242.389,78a5.892,5.892,0,0,1,1.433,4.108Zm-2.586.057a5.025,5.025,0,0,0-.668-2.648,2.469,2.469,0,0,0-2.242-1.337,2.5,2.5,0,0,0-2.287,1.337,5.107,5.107,0,0,0-.669,2.695,5.01,5.01,0,0,0,.669,2.649,2.558,2.558,0,0,0,4.508-.022A5.045,5.045,0,0,0,241.237,82.165Zm10.7-3.384a4.341,4.341,0,0,0-.786-.069,2.354,2.354,0,0,0-2.033.994,3.744,3.744,0,0,0-.622,2.216v5.889H246V80.123q0-1.767-.073-3.534H248.1l.091,2.147h.069a3.85,3.85,0,0,1,1.247-1.779,3.016,3.016,0,0,1,1.8-.6,4.006,4.006,0,0,1,.624.046Zm11.156,2.888A5.85,5.85,0,0,1,263,82.8h-7.483a3.255,3.255,0,0,0,1.086,2.543,3.713,3.713,0,0,0,2.448.784,8.278,8.278,0,0,0,3.028-.53l.391,1.73a9.363,9.363,0,0,1-3.764.694,5.457,5.457,0,0,1-4.1-1.535,5.673,5.673,0,0,1-1.489-4.122,6.428,6.428,0,0,1,1.388-4.225,4.781,4.781,0,0,1,3.925-1.8,4.184,4.184,0,0,1,3.675,1.8A6.057,6.057,0,0,1,263.09,81.669Zm-2.379-.647a3.375,3.375,0,0,0-.484-1.917,2.178,2.178,0,0,0-1.987-1.041,2.365,2.365,0,0,0-1.985,1.016,3.725,3.725,0,0,0-.738,1.939Z" transform="translate(-169.812 -72.016)"/></g><g transform="translate(48.242 7.511)"><path class="a" d="M176.6,34.334a15.932,15.932,0,0,1-1.794-.091V26.717a13.583,13.583,0,0,1,2.112-.159c2.861,0,4.178,1.407,4.178,3.7C181.1,32.9,179.54,34.334,176.6,34.334Zm.419-6.811a5.006,5.006,0,0,0-.987.08v5.721a6.476,6.476,0,0,0,.828.034c1.874,0,2.941-1.067,2.941-3.064A2.5,2.5,0,0,0,177.019,27.523Zm8.183,6.868a2.626,2.626,0,0,1-2.657-2.838,2.687,2.687,0,0,1,2.748-2.917,2.6,2.6,0,0,1,2.657,2.827A2.7,2.7,0,0,1,185.2,34.392Zm.047-4.859c-.886,0-1.453.828-1.453,1.986,0,1.136.579,1.964,1.441,1.964s1.441-.885,1.441-1.987C186.678,30.373,186.111,29.533,185.248,29.533Zm11.9-.783-1.726,5.516h-1.124l-.715-2.4a18.153,18.153,0,0,1-.443-1.781h-.023a11.937,11.937,0,0,1-.442,1.781l-.76,2.4h-1.136l-1.624-5.516h1.26l.625,2.622q.221.937.374,1.771h.023c.09-.464.238-1.045.454-1.759l.784-2.633h1l.75,2.577c.181.625.329,1.237.443,1.816h.033a15.875,15.875,0,0,1,.374-1.816l.67-2.577h1.2Zm6.353,5.516H202.27V31.1c0-.975-.374-1.464-1.113-1.464a1.273,1.273,0,0,0-1.226,1.351v3.281h-1.226V30.327c0-.488-.012-1.011-.046-1.578h1.079l.057.852h.034a1.982,1.982,0,0,1,1.749-.964c1.158,0,1.919.885,1.919,2.326Zm3.381,0H205.65V26.219h1.227Zm4.47.125a2.626,2.626,0,0,1-2.657-2.838,2.687,2.687,0,0,1,2.747-2.917,2.6,2.6,0,0,1,2.657,2.827A2.7,2.7,0,0,1,211.348,34.392Zm.046-4.859c-.886,0-1.453.828-1.453,1.986,0,1.136.58,1.964,1.44,1.964s1.441-.885,1.441-1.987C212.823,30.373,212.257,29.533,211.394,29.533Zm7.536,4.734-.089-.635h-.033a1.884,1.884,0,0,1-1.613.76,1.6,1.6,0,0,1-1.691-1.623c0-1.361,1.181-2.066,3.224-2.066v-.1c0-.726-.385-1.09-1.145-1.09a2.582,2.582,0,0,0-1.441.409l-.249-.806a3.528,3.528,0,0,1,1.894-.477c1.441,0,2.169.76,2.169,2.282v2.032a8.337,8.337,0,0,0,.08,1.317h-1.106Zm-.168-2.748c-1.362,0-2.045.33-2.045,1.112a.782.782,0,0,0,.841.862,1.174,1.174,0,0,0,1.2-1.123Zm7.148,2.748-.057-.885h-.034a1.85,1.85,0,0,1-1.771,1.011c-1.33,0-2.315-1.17-2.315-2.815,0-1.725,1.021-2.941,2.416-2.941a1.658,1.658,0,0,1,1.556.75h.025V26.219h1.227V32.78c0,.533.013,1.033.046,1.487h-1.092Zm-.181-3.246a1.335,1.335,0,0,0-1.292-1.43c-.909,0-1.465.806-1.465,1.94,0,1.112.577,1.874,1.44,1.874a1.377,1.377,0,0,0,1.316-1.464Zm9.009,3.371a2.626,2.626,0,0,1-2.656-2.838,2.687,2.687,0,0,1,2.747-2.917,2.6,2.6,0,0,1,2.657,2.827A2.7,2.7,0,0,1,234.737,34.392Zm.046-4.859c-.884,0-1.452.828-1.452,1.986,0,1.136.579,1.964,1.44,1.964s1.441-.885,1.441-1.987C236.214,30.373,235.647,29.533,234.782,29.533Zm9.3,4.734h-1.227V31.1c0-.975-.374-1.464-1.113-1.464a1.272,1.272,0,0,0-1.225,1.351v3.281h-1.227V30.327c0-.488-.012-1.011-.046-1.578h1.079l.057.852h.034a1.981,1.981,0,0,1,1.748-.965c1.158,0,1.92.885,1.92,2.326Zm8.25-4.6h-1.349v2.679c0,.682.236,1.022.714,1.022a2.416,2.416,0,0,0,.544-.057l.034.931a2.717,2.717,0,0,1-.951.137c-.966,0-1.544-.533-1.544-1.93V29.67h-.8V28.75h.8V27.74l1.2-.364v1.373h1.349v.921Zm6.491,4.6h-1.225V31.122c0-.987-.373-1.487-1.113-1.487a1.2,1.2,0,0,0-1.227,1.305v3.325h-1.225V26.219h1.225v3.314h.025a1.86,1.86,0,0,1,1.659-.9c1.168,0,1.881.908,1.881,2.35Zm6.65-2.463H261.79a1.583,1.583,0,0,0,1.738,1.634,4.145,4.145,0,0,0,1.487-.261l.191.852a4.607,4.607,0,0,1-1.851.34,2.561,2.561,0,0,1-2.747-2.78,2.694,2.694,0,0,1,2.609-2.963,2.317,2.317,0,0,1,2.294,2.622,2.363,2.363,0,0,1-.042.556Zm-1.124-.874c0-.852-.429-1.453-1.213-1.453a1.454,1.454,0,0,0-1.341,1.453h2.554Z" transform="translate(-174.806 -26.219)"/></g></svg>