<svg xmlns="http://www.w3.org/2000/svg" xmlns:xlink="http://www.w3.org/1999/xlink" width="156" height="46" viewBox="0 0 156 46"><defs><style>.a{fill:#3a7f84;}.b,.c,.j{fill:#fff;}.c{stroke:#fff;stroke-miterlimit:10;stroke-width:0.2px;}.d{fill:url(#a);}.e{fill:url(#b);}.f{fill:url(#c);}.g{fill:url(#d);}.h{opacity:0.2;}.i{opacity:0.12;}.j{opacity:0.25;}</style><linearGradient id="a" x1="0.915" y1="6.614" x2="-0.382" y2="5.945" gradientUnits="objectBoundingBox"><stop offset="0" stop-color="#00a0ff"/><stop offset="0.01" stop-color="#00a1ff"/><stop offset="0.26" stop-color="#00beff"/><stop offset="0.51" stop-color="#00d2ff"/><stop offset="0.76" stop-color="#00dfff"/><stop offset="1" stop-color="#00e3ff"/></linearGradient><linearGradient id="b" x1="1.077" y1="17.089" x2="-1.306" y2="17.089" gradientUnits="objectBoundingBox"><stop offset="0" stop-color="#ffe000"/><stop offset="0.41" stop-color="#ffbd00"/><stop offset="0.78" stop-color="orange"/><stop offset="1" stop-color="#ff9c00"/></linearGradient><linearGradient id="c" x1="0.863" y1="10.855" x2="-0.502" y2="9.087" gradientUnits="objectBoundingBox"><stop offset="0" stop-color="#ff3a44"/><stop offset="1" stop-color="#c31162"/></linearGradient><linearGradient id="d" x1="-0.188" y1="13.576" x2="0.421" y2="12.786" gradientUnits="objectBoundingBox"><stop offset="0" stop-color="#32a071"/><stop offset="0.07" stop-color="#2da771"/><stop offset="0.48" stop-color="#15cf74"/><stop offset="0.8" stop-color="#06e775"/><stop offset="1" stop-color="#00f076"/></linearGradient></defs><g transform="translate(0 0)"><rect class="a" width="155.69" height="45.781" rx="5" transform="translate(0.31 0.11)"/><path class="b" d="M159.915,10.92a4.837,4.837,0,0,1,4.843,4.83v34.5a4.837,4.837,0,0,1-4.843,4.83H15.766a4.837,4.837,0,0,1-4.843-4.83V15.75a4.837,4.837,0,0,1,4.843-4.83H159.915m0-.92H15.766A5.758,5.758,0,0,0,10,15.75v34.5A5.758,5.758,0,0,0,15.766,56H159.915a5.758,5.758,0,0,0,5.766-5.75V15.75A5.758,5.758,0,0,0,159.915,10Z" transform="translate(-10 -10)"/><path class="c" d="M58.364,20.766a3.143,3.143,0,0,1-.867,2.311,3.351,3.351,0,0,1-2.542,1.017,3.466,3.466,0,0,1-2.554-1.04,3.622,3.622,0,0,1,3.975-5.9,2.935,2.935,0,0,1,1.086.774l-.612.612a2.311,2.311,0,0,0-1.895-.832A2.773,2.773,0,1,0,56.9,22.476a2.219,2.219,0,0,0,.578-1.41H54.955v-.832h3.362a4.333,4.333,0,0,1,.046.532Z" transform="translate(-3.669 -8.978)"/><path class="c" d="M62.541,17.855h-3.12v2.2h2.842v.832H59.421v2.2h3.12v.855H58.52V17h4.021Z" transform="translate(-2.57 -8.957)"/><path class="c" d="M65.661,23.933h-.89V17.855H62.83V17h4.818v.855H65.661Z" transform="translate(-1.91 -8.957)"/><path class="c" d="M69.94,23.933V17h.89v6.933Z" transform="translate(-0.818 -8.957)"/><path class="c" d="M74.511,23.933h-.89V17.855H71.68V17h4.761v.855h-1.93Z" transform="translate(-0.555 -8.957)"/><path class="c" d="M84.431,23.052a3.594,3.594,0,0,1-5.084,0,3.744,3.744,0,0,1,0-5.13,3.386,3.386,0,0,1,2.542-1.051,3.466,3.466,0,0,1,2.542,1.051,3.547,3.547,0,0,1,1.017,2.565A3.466,3.466,0,0,1,84.431,23.052Zm-4.426-.578a2.646,2.646,0,0,0,3.767,0,2.935,2.935,0,0,0,0-3.975,2.646,2.646,0,0,0-3.767,0,2.935,2.935,0,0,0,0,3.975Z" transform="translate(0.461 -8.977)"/><path class="c" d="M85.58,23.933V17h1.075l3.374,5.4h0V17h.89v6.933h-.924l-3.524-5.65h0v5.65Z" transform="translate(1.573 -8.957)"/><path class="b" d="M82.38,32.482a4.922,4.922,0,1,0,4.934,4.911,4.841,4.841,0,0,0-4.934-4.911Zm0,7.892a2.981,2.981,0,1,1,2.773-2.981,2.842,2.842,0,0,1-2.773,2.981ZM71.611,32.482a4.922,4.922,0,1,0,4.934,4.911,4.841,4.841,0,0,0-4.934-4.911Zm0,7.892a2.981,2.981,0,1,1,2.773-2.981,2.842,2.842,0,0,1-2.773,2.981ZM58.808,34v2.08H63.8A4.356,4.356,0,0,1,62.644,38.7a5.107,5.107,0,0,1-3.859,1.525,5.546,5.546,0,1,1,0-11.093,5.361,5.361,0,0,1,3.79,1.491l1.467-1.467a7.28,7.28,0,0,0-5.234-2.1,7.638,7.638,0,1,0,0,15.264,7.014,7.014,0,0,0,5.327-2.138,6.933,6.933,0,0,0,1.8-4.888,7.244,7.244,0,0,0-.1-1.294Zm52.355,1.618a4.54,4.54,0,0,0-8.828,1.779,4.888,4.888,0,0,0,8.967,2.739l-1.675-1.155a2.785,2.785,0,0,1-2.415,1.352,2.484,2.484,0,0,1-2.38-1.491l6.575-2.715Zm-6.7,1.641a2.7,2.7,0,0,1,2.577-2.877,1.9,1.9,0,0,1,1.814,1.051Zm-5.338,4.761h2.161V27.571H99.123Zm-3.536-8.435h-.081a3.4,3.4,0,0,0-2.588-1.155,4.922,4.922,0,0,0,0,9.833A3.328,3.328,0,0,0,95.506,41.1h.081v.7c0,1.883-1.005,2.889-2.623,2.889A2.727,2.727,0,0,1,90.48,42.95l-1.872.774a4.622,4.622,0,0,0,4.356,2.912c2.531,0,4.622-1.491,4.622-5.119V32.77h-2ZM93.1,40.374a2.981,2.981,0,0,1,0-5.951,2.762,2.762,0,0,1,2.635,2.97A2.75,2.75,0,0,1,93.1,40.374Zm28.182-12.8h-5.177V42.014h2.161V36.537h3.016a4.495,4.495,0,1,0,0-8.967Zm0,6.933h-3.016V29.581h3.062a2.473,2.473,0,1,1,0,4.945Zm13.334-2.068a4.033,4.033,0,0,0-3.848,2.207l1.907.8a2.057,2.057,0,0,1,1.976-1.051,2.08,2.08,0,0,1,2.311,1.86v.139a4.83,4.83,0,0,0-2.253-.555c-2.057,0-4.16,1.155-4.16,3.258a3.339,3.339,0,0,0,3.594,3.178,3.062,3.062,0,0,0,2.75-1.41h.069v1.155h2.08V36.456c0-2.531-1.918-4-4.379-4Zm-.266,7.915c-.7,0-1.687-.358-1.687-1.225,0-1.155,1.225-1.548,2.311-1.548a3.836,3.836,0,0,1,1.964.485,2.611,2.611,0,0,1-2.542,2.311Zm12.271-7.58-2.473,6.263h-.069l-2.565-6.263h-2.311l3.848,8.759-2.2,4.865h2.253l5.916-13.623Zm-19.412,9.244h2.149V27.571h-2.149Z" transform="translate(-3.954 -7.569)"/><path class="d" d="M20.514,17.55a2.282,2.282,0,0,0-.543,1.605V44.521a2.214,2.214,0,0,0,.543,1.605l.081.092L34.911,32.011v-.344L20.595,17.47Z" transform="translate(-8.45 -8.839)"/><path class="e" d="M37.637,35.611,32.9,30.839v-.347l4.737-4.772.1.069L43.415,29c1.618.913,1.618,2.415,0,3.339l-5.65,3.212Z" transform="translate(-6.496 -7.665)"/><path class="f" d="M39.714,34.876,34.837,30,20.44,44.4a1.872,1.872,0,0,0,2.392.081l16.882-9.6" transform="translate(-8.377 -7.052)"/><path class="g" d="M39.714,27.125,22.832,17.534a1.86,1.86,0,0,0-2.392.069L34.837,32Z" transform="translate(-8.377 -8.949)"/><path class="h" d="M39.575,34.13,22.832,43.663a1.918,1.918,0,0,1-2.311,0h0l-.081.081h0l.081.092h0a1.918,1.918,0,0,0,2.311,0l16.882-9.6Z" transform="translate(-8.377 -6.417)"/><path class="i" d="M20.509,42.539A2.311,2.311,0,0,1,20,40.91v.173a2.242,2.242,0,0,0,.543,1.618l.081-.081Z" transform="translate(-8.446 -5.37)"/><path class="i" d="M42.777,31.5,37,34.772l.1.1,5.673-3.212A2.022,2.022,0,0,0,44,30h0a2.149,2.149,0,0,1-1.225,1.5Z" transform="translate(-5.867 -7.013)"/><path class="j" d="M22.9,17.695l22.52,12.8A2.149,2.149,0,0,1,46.65,32h0a2.022,2.022,0,0,0-1.225-1.664L22.9,17.533c-1.606-.924-2.935-.162-2.935,1.687v.173C20,17.544,21.3,16.782,22.9,17.695Z" transform="translate(-8.45 -8.948)"/></g></svg>