<svg xmlns="http://www.w3.org/2000/svg" width="31.494" height="34.942" viewBox="0 0 31.494 34.942"><defs><style>.a{fill:#bc264f;}</style></defs><g transform="translate(-3.753 0.971)"><g transform="translate(-103 -310)"><path class="a" d="M135.747,319.279a2.473,2.473,0,0,0-.407.042,13.177,13.177,0,0,0-25.714,0,2.538,2.538,0,0,0-.373-.038,2.5,2.5,0,0,0-2.5,2.5v3a2.5,2.5,0,0,0,2.5,2.5,2.466,2.466,0,0,0,.861-.162,5,5,0,0,0,4.639,3.162,1,1,0,0,0,0-2,3,3,0,0,1-3-3v-3.17a10.742,10.742,0,1,1,21.48.414c0,.025.012.046.014.07v2.186a2.5,2.5,0,0,0,5,0v-3A2.5,2.5,0,0,0,135.747,319.279Z"/><path class="a" d="M130.689,333.267h-2.935a2,2,0,0,0-1.639.854l-2.052,2.938a2,2,0,0,1-3.294-.022l-1.965-2.894a2,2,0,0,0-1.654-.876h-2.882a6.722,6.722,0,0,0-6.722,6.721v2.983a1,1,0,0,0,1,1H136.41a1,1,0,0,0,1-1v-2.983A6.721,6.721,0,0,0,130.689,333.267Zm-8.206-2.5a8.243,8.243,0,1,0-8.244-8.244A8.244,8.244,0,0,0,122.483,330.767Z"/></g></g></svg>